<svg width="25" height="24" viewBox="0 0 25 24" fill="none" xmlns="http://www.w3.org/2000/svg">
<g clip-path="url(#clip0_223_193)">
<path d="M1.58398 12C1.58398 16.9124 4.73398 21.0749 9.08398 22.6124V1.38745C4.73398 2.92495 1.58398 7.08745 1.58398 12Z" fill="#428BC1"/>
<path d="M24.084 12C24.084 7.08745 20.9715 2.92495 16.584 1.38745V22.6124C20.9715 21.0749 24.084 16.9124 24.084 12Z" fill="#ED4C5C"/>
<path d="M9.08398 22.6125C10.2465 23.025 11.5215 23.25 12.834 23.25C14.1465 23.25 15.4215 23.025 16.584 22.6125V1.3875C15.4215 0.975 14.184 0.75 12.834 0.75C11.484 0.75 10.2465 0.975 9.08398 1.3875V22.6125Z" fill="white"/>
</g>
<defs>
<clipPath id="clip0_223_193">
<rect width="24" height="24" fill="white" transform="translate(0.871094)"/>
</clipPath>
</defs>
</svg>
